<svg id="Layer_1" xmlns="http://www.w3.org/2000/svg" width="400" height="120" viewBox="0 0 400 120"><style>.st0{fill:#fff;width:16px;height:16px}.st1,.st2{stroke-linecap:round}.st1{fill:none;stroke:#fff;stroke-width:1.5}.st2{stroke-width:2}.st2,.st3{fill:none;stroke:#fff}.st4{fill:#231f20}.st5{opacity:.75;enable-background:new}.st5,.st6{fill:none;stroke:#fff;stroke-width:5}.st7{opacity:.4;fill:#fff;enable-background:new}.st10,.st11,.st12,.st13,.st8,.st9{opacity:.6;fill:#fff;enable-background:new}.st10,.st11,.st12,.st13,.st9{opacity:.8}.st10,.st11,.st12,.st13{opacity:.9}.st11,.st12,.st13{opacity:.3}.st12,.st13{opacity:.5}.st13{opacity:.7}</style><g id="controls"><path class="st0" d="M16.5 8.5c.3.1.4.5.2.8-.1.1-.1.2-.2.2l-11.4 7c-.5.3-.8.1-.8-.5V2c0-.5.4-.8.8-.5l11.4 7z" id="play"/><g id="pause"><path class="st0" d="M24 1h2.2c.6 0 1 .4 1 1v14c0 .6-.4 1-1 1H24c-.6 0-1-.4-1-1V2c0-.5.4-1 1-1zM33.8 1H36c.6 0 1 .4 1 1v14c0 .6-.4 1-1 1h-2.2c-.6 0-1-.4-1-1V2c0-.5.4-1 1-1z"/></g><g id="fullscreen"><g id="enter"><path class="st0" d="M81 1.4c0-.6.4-1 1-1h5.4c.6 0 .7.3.3.7l-6 6c-.4.4-.7.3-.7-.3V1.4zM81 17.2c0 .6.4 1 1 1h5.4c.6 0 .7-.3.3-.7l-6-6c-.4-.4-.7-.3-.7.3v5.4zM98.8 1.4c0-.6-.4-1-1-1h-5.4c-.6 0-.7.3-.3.7l6 6c.4.4.7.3.7-.3V1.4zM98.8 17.2c0 .6-.4 1-1 1h-5.4c-.6 0-.7-.3-.3-.7l6-6c.4-.4.7-.3.7.3v5.4z"/></g><g id="exit"><path class="st0" d="M112.7 5c0 .6.4 1 1 1h4.1c.6 0 .7-.3.3-.7L113.4.6c-.4-.4-.7-.3-.7.3V5zM105.6 6c.6 0 1-.4 1-1V.9c0-.6-.3-.7-.7-.3l-4.7 4.7c-.4.4-.3.7.3.7h4.1zM106.6 13.1c0-.6-.4-1-1-1h-4.1c-.6 0-.7.3-.3.7l4.7 4.7c.4.4.7.3.7-.3v-4.1zM113.7 12.1c-.6 0-1 .4-1 1v4.1c0 .5.3.7.7.3l4.7-4.7c.4-.4.3-.7-.3-.7h-4.1z"/></g></g><g id="volume"><g id="unmuted"><path class="st0" d="M67 5.8c-.5.4-1.2.6-1.8.6H62c-.6 0-1 .4-1 1v5.7c0 .6.4 1 1 1h4.2c.3.2.5.4.8.6l3.5 2.6c.4.3.8.1.8-.4V3.5c0-.5-.4-.7-.8-.4L67 5.8z"/><path class="st1" d="M73.9 2.5s3.9-.8 3.9 7.7-3.9 7.8-3.9 7.8"/><path class="st1" d="M72.6 6.4s2.6-.4 2.6 3.8-2.6 3.9-2.6 3.9"/></g><g id="muted"><path class="st0" d="M47 5.8c-.5.4-1.2.6-1.8.6H42c-.6 0-1 .4-1 1v5.7c0 .6.4 1 1 1h4.2c.3.2.5.4.8.6l3.5 2.6c.4.3.8.1.8-.4V3.5c0-.5-.4-.7-.8-.4L47 5.8z"/><path class="st2" d="M52.8 7l5.4 5.4M52.8 12.4L58.2 7"/></g></g><g id="closed_captions"><path class="st3" d="M128.7 8.6c-6.2-4.2-6.5 7.8 0 3.9M135.2 8.6c-6.2-4.2-6.5 7.8 0 3.9"/><path class="st0" d="M122.2 3.4h15.7v13.1h-15.7V3.4zM120.8 2v15.7h18.3V2h-18.3z"/></g><path class="st0" d="M143.2 3h14c1.1 0 2 .9 2 2v10c0 1.1-.9 2-2 2h-14c-1.1 0-2-.9-2-2V5c0-1.1.9-2 2-2z"/><path class="st4" d="M146.4 13.8c-.8 0-1.6-.4-2.1-1-1.1-1.4-1-3.4.1-4.8.5-.6 2-1.7 4.6.2l-.6.8c-1.4-1-2.6-1.1-3.3-.3-.8 1-.8 2.4-.1 3.5.7.9 1.9.8 3.4-.1l.5.9c-.7.5-1.6.7-2.5.8zM153.9 13.8c-.8 0-1.6-.4-2.1-1-1.1-1.4-1-3.4.1-4.8.5-.6 2-1.7 4.6.2l-.5.8c-1.4-1-2.6-1.1-3.3-.3-.8 1-.8 2.4-.1 3.5.7.9 1.9.8 3.4-.1l.5.9c-.8.5-1.7.7-2.6.8z"/></g><g id="big_play"><g id="big_play_opaque"><path class="st0" d="M60.3 77c.6.2.8.8.6 1.4-.1.3-.3.5-.6.6L30 96.5c-1 .6-1.7.1-1.7-1v-35c0-1.1.8-1.5 1.7-1L60.3 77z"/><path class="st5" d="M2.5 79c0-20.7 16.8-37.5 37.5-37.5S77.5 58.3 77.5 79 60.7 116.5 40 116.5 2.5 99.7 2.5 79z"/></g><g id="big_play_hover"><path class="st0" d="M140.3 77c.6.2.8.8.6 1.4-.1.3-.3.5-.6.6L110 96.5c-1 .6-1.7.1-1.7-1v-35c0-1.1.8-1.5 1.7-1L140.3 77z"/><path class="st6" d="M82.5 79c0-20.7 16.8-37.5 37.5-37.5s37.5 16.8 37.5 37.5-16.8 37.5-37.5 37.5S82.5 99.7 82.5 79z"/></g><g id="loading"><circle class="st0" cx="201.9" cy="47.1" r="8.1"/><circle class="st7" cx="233.9" cy="79" r="5"/><circle class="st8" cx="201.9" cy="110.9" r="6"/><circle class="st9" cx="170.1" cy="79" r="7"/><circle class="st10" cx="178.2" cy="56.3" r="7.5"/><circle class="st11" cx="226.3" cy="56.1" r="4.5"/><circle class="st12" cx="225.8" cy="102.8" r="5.5"/><circle class="st13" cx="178.2" cy="102.8" r="6.5"/></g></g><g id="replay"><path class="st0" d="M178 9.4c0 .4-.4.7-.9.7-.1 0-.2 0-.2-.1L172 8.2c-.5-.2-.6-.6-.1-.8l6.2-3.6c.5-.3.8-.1.7.5l-.8 5.1z"/><path class="st0" d="M169.4 15.9c-1 0-2-.2-2.9-.7-2-1-3.2-3-3.2-5.2.1-3.4 2.9-6 6.3-6 2.5.1 4.8 1.7 5.6 4.1l.1-.1 2.1 1.1c-.6-4.4-4.7-7.5-9.1-6.9-3.9.6-6.9 3.9-7 7.9 0 2.9 1.7 5.6 4.3 7 1.2.6 2.5.9 3.8 1 2.6 0 5-1.2 6.6-3.3l-1.8-.9c-1.2 1.2-3 2-4.8 2z"/></g><g id="chapters"><path class="st0" d="M183.4 3.2c.8 0 1.5.7 1.5 1.5s-.7 1.5-1.5 1.5-1.5-.7-1.5-1.5c0-.9.7-1.5 1.5-1.5zM188.5 3.2h8.5c.9 0 1.5.7 1.5 1.5s-.7 1.5-1.5 1.5h-8.5c-.9 0-1.5-.7-1.5-1.5-.1-.9.6-1.5 1.5-1.5zM183.4 8.2c.8 0 1.5.7 1.5 1.5s-.7 1.5-1.5 1.5-1.5-.7-1.5-1.5c0-.9.7-1.5 1.5-1.5zM188.5 8.2h8.5c.9 0 1.5.7 1.5 1.5s-.7 1.5-1.5 1.5h-8.5c-.9 0-1.5-.7-1.5-1.5-.1-.9.6-1.5 1.5-1.5zM183.4 13.2c.8 0 1.5.7 1.5 1.5s-.7 1.5-1.5 1.5-1.5-.7-1.5-1.5c0-.9.7-1.5 1.5-1.5zM188.5 13.2h8.5c.9 0 1.5.7 1.5 1.5s-.7 1.5-1.5 1.5h-8.5c-.9 0-1.5-.7-1.5-1.5-.1-.9.6-1.5 1.5-1.5z"/></g></svg>