<svg xmlns="http://www.w3.org/2000/svg" width="400" height="120" viewBox="0 0 400 120"><path d="M16.48 8.49a.56.56 0 0 1 0 1l-11.38 7c-.47.29-.85.07-.85-.48v-14c0-.55.38-.77.85-.48z" fill="#fff"/><g fill="#fff"><rect x="23" y="1.01" width="4.2" height="16" rx="1" ry="1"/><rect x="32.8" y="1.01" width="4.2" height="16" rx="1" ry="1"/></g><g fill="#fff"><path d="M81 1.39a1 1 0 0 1 1-1h5.41c.55 0 .68.32.29.71l-6 6c-.39.39-.71.26-.71-.29zM81 17.18a1 1 0 0 0 1 1h5.41c.55 0 .68-.32.29-.71l-6-6c-.39-.39-.71-.26-.71.29zM98.8 1.39a1 1 0 0 0-1-1h-5.42c-.55 0-.68.32-.29.71l6 6c.39.39.71.26.71-.29zM98.8 17.18a1 1 0 0 1-1 1h-5.42c-.55 0-.68-.32-.29-.71l6-6c.39-.39.71-.26.71.29z"/></g><g fill="#fff"><path d="M112.7 5.01a1 1 0 0 0 1 1h4.1c.55 0 .68-.32.29-.71L113.41.62c-.39-.39-.71-.26-.71.29zM105.6 6.01a1 1 0 0 0 1-1V.89c0-.55-.32-.68-.71-.29l-4.72 4.68c-.39.39-.26.71.29.71zM106.6 13.08a1 1 0 0 0-1-1h-4.1c-.55 0-.68.32-.29.71l4.68 4.68c.39.39.71.26.71-.29zM113.7 12.08a1 1 0 0 0-1 1v4.1c0 .55.32.68.71.29l4.68-4.68c.39-.39.26-.71-.29-.71z"/></g><path d="M66.97 5.78a3.51 3.51 0 0 1-1.8.6h-3.15a1 1 0 0 0-1 1v5.73a1 1 0 0 0 1 1h3.15a6.28 6.28 0 0 1 1 0 8.5 8.5 0 0 0 .81.63l3.54 2.6c.44.33.81.14.81-.41V3.51c0-.55-.36-.73-.8-.4z" fill="#fff"/><path d="M73.89 2.51s3.95-.81 3.87 7.73-3.87 7.77-3.87 7.77" fill="none" stroke="#fff" stroke-linecap="round" stroke-width="1.5"/><path d="M72.6 6.39s2.63-.38 2.57 3.85-2.58 3.86-2.58 3.86" fill="none" stroke="#fff" stroke-linecap="round" stroke-width="1.5"/><path d="M46.97 5.78a3.51 3.51 0 0 1-1.8.6h-3.15a1 1 0 0 0-1 1v5.73a1 1 0 0 0 1 1h3.15a6.28 6.28 0 0 1 1 0 8.5 8.5 0 0 0 .81.63l3.54 2.6c.44.33.81.14.81-.41V3.51c0-.55-.36-.73-.8-.4z" fill="#fff"/><path fill="none" stroke="#fff" stroke-linecap="round" stroke-width="2" d="M52.83 6.98l5.39 5.38M52.83 12.36l5.39-5.38"/><path d="M128.7 8.59c-6.17-4.21-6.46 7.77 0 3.92M135.23 8.59c-6.17-4.21-6.46 7.77 0 3.92" fill="none" stroke="#fff"/><path d="M122.17 3.36h15.69v13.08h-15.69zm-1.32-1.35v15.73h18.32V2.01z" fill="#fff"/><g><path d="M192.17 2.17l-4.33 2.16V.01z" fill="#fff"/><path d="M194.9 2.17l-4.33 2.16V.01z" fill="#fff"/><path d="M190 2.17a8.15 8.15 0 0 0-8.16 8.16M181.85 9.84a8.15 8.15 0 0 0 8.15 8.17M189.63 18.01a8.15 8.15 0 0 0 8.16-8.16" fill="none" stroke="#fff" stroke-width="2"/></g><g><path d="M162.69 9.66a8.15 8.15 0 0 0 8.16 8.16M170.37 17.81a8.15 8.15 0 0 0 8.16-8.16M178.53 10.01a8.15 8.15 0 0 0-8.16-8.16" fill="none" stroke="#fff" stroke-width="2"/><path d="M166.59 2.17l4.32 2.16V.01z" fill="#fff"/><path d="M163.87 2.17l4.3 2.16V.01z" fill="#fff"/></g><g><rect x="141.17" y="3.01" width="18" height="14" rx="2" ry="2" fill="#fff"/><path d="M146.36 13.79a2.69 2.69 0 0 1-2.14-1 3.87 3.87 0 0 1 .12-4.78c.51-.56 2-1.65 4.64.16l-.56.83c-1.43-1-2.62-1.09-3.34-.31a2.89 2.89 0 0 0-.08 3.47c.7.86 1.92.83 3.45-.08l.51.86a5.13 5.13 0 0 1-2.6.85zM153.9 13.79a2.69 2.69 0 0 1-2.14-1 3.87 3.87 0 0 1 .12-4.78c.51-.56 2-1.65 4.64.16l-.56.83c-1.43-1-2.62-1.09-3.34-.31a2.89 2.89 0 0 0-.08 3.47c.7.86 1.92.83 3.45-.08l.51.86a5.13 5.13 0 0 1-2.6.85z" fill="#231f20"/></g><g><path d="M218.63 9.39a1.35 1.35 0 0 0-1-1.24l-1.85-.46a.7.7 0 0 1-.46-1.1l1-1.64a1.35 1.35 0 0 0-.15-1.58 1.35 1.35 0 0 0-1.56-.19l-1.64 1a.7.7 0 0 1-1.1-.46l-.46-1.85a1.35 1.35 0 0 0-1.24-1 1.35 1.35 0 0 0-1.24 1l-.46 1.85a.7.7 0 0 1-1.1.46l-1.64-1a1.35 1.35 0 0 0-1.56.19 1.35 1.35 0 0 0-.19 1.56l1 1.64a.7.7 0 0 1-.46 1.1l-1.85.46a1.35 1.35 0 0 0-1 1.24 1.35 1.35 0 0 0 1 1.24l1.85.46a.7.7 0 0 1 .46 1.1l-1 1.64a1.35 1.35 0 0 0 .19 1.56 1.35 1.35 0 0 0 1.56.19l1.64-1a.7.7 0 0 1 1.1.46l.46 1.85a1.35 1.35 0 0 0 1.24 1 1.35 1.35 0 0 0 1.24-1l.46-1.85a.7.7 0 0 1 1.1-.46l1.64 1a1.35 1.35 0 0 0 1.56-.19 1.35 1.35 0 0 0 .19-1.56l-1-1.64a.7.7 0 0 1 .46-1.1l1.85-.46a1.35 1.35 0 0 0 1-1.24zm-5.68 0a2.82 2.82 0 1 1-2.78-2.84 2.82 2.82 0 0 1 2.78 2.82z" fill="#fff"/></g><g><rect x="223" y="2.84" width="14" height="14" rx="2" ry="2" fill="#fff"/></g><g fill="#fff"><path d="M254.22 6.53a5.72 5.72 0 1 1-8.7-.27l-1.62-1.62a8 8 0 1 0 11.94.26z"/><path d="M251.3 3.37a.72.72 0 0 1 .85-.85l5.52.77c.54.08.67.46.28.84l-5 5c-.39.39-.77.26-.84-.28z"/><g opacity=".5"><path d="M274.38 6.78a5.72 5.72 0 1 1-8.7-.27l-1.62-1.62a8 8 0 1 0 11.94.26z"/><path d="M271.46 3.62a.72.72 0 0 1 .85-.85l5.52.77c.54.08.67.46.28.84l-5 5c-.39.39-.77.26-.84-.28z"/></g></g><g fill="#fff"><path d="M298.81 9.55a.79.79 0 0 1-1.1.64l-4.86-1.82c-.51-.19-.55-.58-.07-.85l6.18-3.57c.48-.27.79-.06.7.49z"/><path d="M290.17 16.09a6.22 6.22 0 0 1-2.9-.71 5.94 5.94 0 0 1-3.2-5.24 6.11 6.11 0 0 1 11.87-1.89l.1-.15 2.13 1.06a8.1 8.1 0 0 0-16.12 1 7.93 7.93 0 0 0 4.26 7 8.22 8.22 0 0 0 3.83.95 8.13 8.13 0 0 0 6.57-3.32l-1.8-.93a6.14 6.14 0 0 1-4.74 2.23z"/></g><g fill="#fff"><rect x="302" y="3.01" width="3" height="3" rx="2" ry="2"/><rect x="307" y="3.01" width="15" height="3" rx="2" ry="2"/><rect x="302" y="8.01" width="3" height="3" rx="2" ry="2"/><rect x="307" y="8.01" width="15" height="3" rx="2" ry="2"/><rect x="302" y="13.01" width="3" height="3" rx="2" ry="2"/><rect x="307" y="13.01" width="15" height="3" rx="2" ry="2"/></g><g><path d="M60.27 77.01a1.06 1.06 0 0 1 0 2L29.99 96.5c-1 .55-1.73.1-1.73-1v-35c0-1.1.78-1.55 1.73-1z" fill="#fff"/><path d="M2.5 79.01a37.5 37.5 0 1 1 37.5 37.5 37.5 37.5 0 0 1-37.5-37.5z" style="isolation:isolate" fill="none" stroke="#fff" stroke-width="5" opacity=".75"/><path d="M140.27 77.01a1.06 1.06 0 0 1 0 2L109.99 96.5c-1 .55-1.73.1-1.73-1v-35c0-1.1.78-1.55 1.73-1z" fill="#fff"/><path d="M82.5 79.01a37.5 37.5 0 1 1 37.5 37.5 37.5 37.5 0 0 1-37.5-37.5z" fill="none" stroke="#fff" stroke-width="5"/><g fill="#fff"><circle cx="201.88" cy="47.13" r="8.13"/><circle cx="233.88" cy="79.01" r="5" opacity=".4"/><circle cx="201.88" cy="110.88" r="6" opacity=".6"/><circle cx="170.13" cy="79.01" r="7" opacity=".8"/><circle cx="178.25" cy="56.34" r="7.5" opacity=".9"/><circle cx="226.33" cy="56.09" r="4.5" opacity=".3"/><circle cx="225.75" cy="102.76" r="5.5" opacity=".5"/><circle cx="178.25" cy="102.76" r="6.5" opacity=".7"/></g></g></svg>